<svg xmlns="http://www.w3.org/2000/svg" xmlns:xlink="http://www.w3.org/1999/xlink" version="1.1" id="Layer_1" x="0px" y="0px" width="100px" height="100px" viewBox="0 0 100 100" enable-background="new 0 0 100 100" xml:space="preserve">
<path id="Listen_To_Music" fill="#000000" d="M59.338,76.709v-4.551c6.436-2.748,11.424-8.244,13.487-15.006V58.5  c0,3.437,2.788,6.225,6.225,6.225h2.075c3.437,0,6.225-2.788,6.225-6.225V43.975c0-3.438-2.788-6.225-6.225-6.225h-0.369  C75.818,25.599,63.903,17,50,17c-13.903,0-25.818,8.599-30.756,20.75h-0.369c-3.437,0-6.225,2.787-6.225,6.225V58.5  c0,3.437,2.789,6.225,6.225,6.225h2.075c3.437,0,6.225-2.788,6.225-6.225v-1.348c2.063,6.762,7.052,12.258,13.488,15.006v4.551  C26.23,79.493,14.907,88.551,11.592,100h4.32c3.214-9.238,12.701-16.533,24.75-19.068c1.354-0.285,2.737-0.506,4.15-0.664v-11.07  c-1.455-0.399-2.849-0.94-4.15-1.644c-6.172-3.333-10.375-9.86-10.375-17.354c0-10.87,8.843-19.713,19.712-19.713  c10.869,0,19.713,8.843,19.713,19.713c0,7.493-4.203,14.021-10.375,17.354c-1.302,0.703-2.695,1.244-4.15,1.644v11.07  c1.412,0.158,2.797,0.379,4.15,0.664c12.049,2.535,21.536,9.83,24.75,19.068h4.32C85.093,88.551,73.77,79.493,59.338,76.709z   M50,26.337c-10.817,0-19.96,7.238-22.878,17.121c-0.19-2.293-1.603-4.229-3.603-5.14C28.071,28.214,38.217,21.15,50,21.15  s21.93,7.064,26.48,17.168c-2,0.911-3.412,2.847-3.603,5.14C69.96,33.576,60.816,26.337,50,26.337z"/>
</svg>