<svg xmlns="http://www.w3.org/2000/svg" xmlns:xlink="http://www.w3.org/1999/xlink" version="1.1" id="Layer_1" x="0px" y="0px" width="100px" height="100px" viewBox="0 0 100 100" enable-background="new 0 0 100 100" xml:space="preserve">
<path fill="none" stroke="#000000" stroke-width="0.25" stroke-miterlimit="10" d="M17.334,12.5"/>
<path fill="#000000" d="M24.271,16.993l5.412,9.561c0,0,4.135,7.191,4.149,7.216c1.027,1.785,3.009,2.776,3.847,4.771  c0.748,1.784,0.483,3.796,0.483,5.69c0,1.45,0.235,2.868-0.104,4.24c-0.422,1.714,0,3.245-0.617,4.598  c-0.3,0.656-3.238-0.059-3.792-0.123c-1.449-0.164-9.626,0.951-7.768,4.049c1.297,2.158,4.014,3.838,5.926,5.393  c1.007,0.816,2.138,1.521,3.094,2.395c2.254,2.057,3.633,5.574,5.186,8.178l2.571,3.246c0,0,7.713,8.389,1.457-4.555  c-1.139-2.357-1.154-4.994-2.683-7.225c-0.927-1.35-2.117-2.715-3.374-3.779l5.682-0.27l11.636,16.369  c2.404,4.75,3.699,9.975,7.141,14.111c0.592,0.713,5.975,6.029,6.93,5.006c0.605-0.645-2.143-4.291-2.422-4.91  c-2.547-5.65-5.922-10.422-8.402-16.1c-1.73-3.963-2.07-8.363-4.037-12.25c-1.836-3.633-4.175-6.822-7.224-9.533  c-0.277-0.236,0.16-2.659,0.197-3.14c0.149-1.933,1.308-3.499,2.093-5.207c0.709-1.537,1.01-3.326,2.052-4.691  c0.973-1.273,3.242-2.175,4.754-2.529c2.928-0.686,6.461,0.188,9.396,0.491c2.004,0.207,4.025,0.298,6.031,0.463  c1.781,0.147,3.68-0.175,5.461-0.235c1.049-0.036,2.189,0.094,3.219-0.154c0.811-0.196,2.02-0.729,2.338-1.59  c0.273-0.732-4.75-1.255-5.154-1.244c-1.164,0.03-2.344-0.023-3.508-0.023c-2.379,0-4.592-0.231-6.676-1.217l-5.051-1.668  c-2.156-0.327-4.277-1.292-6.48-0.763c-1.246,0.298-2.367,1.306-3.682,1.325c-1.24,0.018-2.875-1.339-2.871-2.708  c0.004-1.442,2.283-2.494,3.041-3.627c1.516-2.276,0.432-5.359-2.152-6.343c-1.648-0.628-4.59,0.573-5.258,2.16  c-0.553,1.313-0.344,3.148-0.277,4.544l0.181,3.789c0,0-1.259,1.977-1.263,1.984c-0.856,1.342-2.781-0.058-3.323-0.81  c-0.729-1.011-1.177-2.248-1.992-3.211c-1.216-1.438-2.979-2.376-4.065-3.916l-4.33-6.134l-2.886-3.788c0,0-1.613-3.766-1.624-3.789  c-0.63-1.472,1.094-7.962-1.995-6.922c-2.409,0.812-1.368,4.313-1.252,6.021l0.542,3.247L24.271,16.993z"/>
</svg>