<svg xmlns="http://www.w3.org/2000/svg" xmlns:xlink="http://www.w3.org/1999/xlink" version="1.1" id="Your_Icon" x="0px" y="0px" width="100px" height="100px" viewBox="0 0 100 100" enable-background="new 0 0 100 100" xml:space="preserve">
<path d="M40.048,35.933c-3.481-2.32-3.307-7.833-3.17-9.467c0.144-1.734,1.743-2.568,4.392-3.951c1.613-0.841,3.62-1.889,5.96-3.475  c1.637-1.108,2.421-2.544,2.33-4.266c-0.156-3-2.918-6.033-3.438-6.311c-1.027-0.536-5.025-5.46-5.816-6.442l0.907-0.731  c2.253,2.797,4.908,5.858,5.447,6.14c0.744,0.387,3.855,3.659,4.062,7.249c0.124,2.143-0.858,3.984-2.84,5.327  c-2.395,1.622-4.434,2.687-6.073,3.542c-2.485,1.297-3.683,1.967-3.771,3.015c-0.087,1.049-0.371,6.384,2.656,8.4L40.048,35.933z"/>
<path d="M17.186,99c-0.218,0-0.426-0.02-0.623-0.059l0.229-1.143c3.443,0.686,12.028-7.914,13.531-10.232  c0.943-1.457,0.541-5.713,0.216-9.131c-0.152-1.613-0.296-3.137-0.31-4.334c-0.046-4.209,6.133-7.203,6.396-7.328l0.502,1.051  c-0.058,0.027-5.771,2.799-5.732,6.264c0.012,1.15,0.154,2.648,0.305,4.236c0.376,3.973,0.765,8.08-0.399,9.875  c-0.829,1.281-3.469,4.143-6.288,6.537C21.674,97.57,19.047,99,17.186,99z"/>
<path d="M30.254,23.43c-1.293,0-2.3-0.378-3.012-1.132c-2.679-2.843-0.074-9.954,0.038-10.255l0.546,0.203  c-0.026,0.07-2.592,7.073-0.16,9.653c1.029,1.091,2.857,1.243,5.433,0.454c0.571-0.175,1.191-0.612,1.847-1.075  c1.636-1.152,3.67-2.587,6.703-1.444l-0.206,0.545c-2.74-1.032-4.559,0.246-6.161,1.375c-0.696,0.49-1.353,0.954-2.013,1.155  C32.137,23.257,31.13,23.43,30.254,23.43z"/>
<path d="M20.076,50.013c0-2.231,3.107-5.753,8.497-9.176s11.798-6.894,12.623-5.826c0.558,0.722,1.02,3.277-3.35,6.481  c0,0-13.254,8.011-13.619,8.521c-0.364,0.51-2.112,1.967-1.238,2.84s2.767,1.383,3.641,1.529s8.812,2.039,10.56,4.66  c1.748,2.623,2.476,5.463,1.529,7.355c-0.947,1.895-2.476,1.312-3.131,1.02c-0.656-0.291-4.057-5.018-5.559-6.43  c-1.651-1.555-6.208-4.611-7.259-5.514C21.937,54.76,20.173,53.701,20.076,50.013z"/>
<path d="M45,44c0,0,0.958,0.374,2.232,1.256c0.631,0.445,1.342,1.02,1.985,1.783c0.319,0.382,0.631,0.808,0.866,1.303  c0.238,0.489,0.412,1.058,0.414,1.658c-0.014,0.186-0.005,0.244-0.035,0.426c-0.021,0.161-0.052,0.308-0.09,0.443  c-0.072,0.278-0.176,0.54-0.293,0.787c-0.243,0.49-0.553,0.915-0.87,1.298c-0.647,0.758-1.354,1.334-1.984,1.78  c-0.63,0.448-1.198,0.75-1.588,0.965C45.239,55.906,45,56,45,56s0.192-0.166,0.529-0.457c0.339-0.283,0.8-0.717,1.336-1.238  c0.529-0.527,1.133-1.154,1.66-1.887c0.266-0.363,0.501-0.759,0.683-1.168c0.091-0.204,0.168-0.413,0.217-0.623  c0.028-0.109,0.046-0.209,0.056-0.299c0.02-0.066,0.015-0.263,0.022-0.329c-0.001-0.835-0.47-1.686-0.986-2.411  c-0.532-0.727-1.132-1.355-1.66-1.883c-0.538-0.518-0.992-0.961-1.331-1.245C45.192,44.167,45,44,45,44z"/>
<path d="M49,39.5c0,0,0.413,0.193,1.1,0.596c0.678,0.414,1.667,0.991,2.747,1.837c1.074,0.847,2.331,1.869,3.432,3.229  c0.55,0.677,1.078,1.427,1.48,2.279c0.407,0.844,0.688,1.808,0.696,2.808c-0.021,0.285-0.009,0.445-0.058,0.725  c-0.032,0.26-0.083,0.505-0.147,0.736c-0.12,0.473-0.295,0.92-0.495,1.345c-0.411,0.848-0.938,1.597-1.485,2.275  c-0.546,0.682-1.151,1.265-1.73,1.801c-0.583,0.533-1.157,1.007-1.699,1.427c-1.085,0.84-2.065,1.427-2.743,1.842  C49.411,60.804,49,61,49,61s0.36-0.275,0.99-0.757c0.63-0.479,1.494-1.209,2.496-2.107c1.001-0.898,2.109-2.02,3.101-3.341  c0.496-0.658,0.947-1.379,1.297-2.145c0.175-0.383,0.323-0.777,0.42-1.181c0.054-0.205,0.091-0.403,0.112-0.592  c0.039-0.165,0.03-0.462,0.045-0.627c-0.02-0.812-0.22-1.637-0.581-2.398c-0.357-0.761-0.808-1.48-1.302-2.139  c-1.003-1.31-2.097-2.442-3.099-3.34c-1.007-0.892-1.862-1.633-2.492-2.112C49.359,39.776,49,39.5,49,39.5z"/>
<path d="M56.333,35.5c0,0,0.579,0.244,1.547,0.762c0.965,0.521,2.327,1.309,3.854,2.428c0.77,0.552,1.577,1.19,2.389,1.924  c0.819,0.726,1.647,1.542,2.417,2.482c0.772,0.935,1.521,1.974,2.088,3.171c0.573,1.185,0.982,2.55,0.991,3.982  c-0.032,0.429-0.013,0.604-0.084,1.025c-0.047,0.38-0.121,0.73-0.212,1.056c-0.172,0.669-0.421,1.3-0.704,1.896  c-0.583,1.188-1.328,2.226-2.097,3.162c-0.766,0.941-1.611,1.741-2.418,2.477c-0.808,0.736-1.625,1.363-2.387,1.924  c-1.526,1.117-2.882,1.913-3.844,2.438C56.908,64.75,56.333,65,56.333,65s0.492-0.388,1.323-1.09  c0.832-0.701,2.007-1.713,3.344-2.98c0.67-0.632,1.363-1.347,2.079-2.106c0.715-0.762,1.407-1.613,2.077-2.506  c0.665-0.896,1.262-1.876,1.722-2.901c0.231-0.511,0.427-1.036,0.552-1.568c0.071-0.272,0.118-0.53,0.145-0.768  c0.05-0.19,0.038-0.641,0.057-0.83c-0.03-1.055-0.28-2.144-0.762-3.162c-0.477-1.016-1.069-1.993-1.73-2.891  c-1.332-1.796-2.833-3.328-4.154-4.607c-1.338-1.266-2.505-2.286-3.334-2.99C56.821,35.894,56.333,35.5,56.333,35.5z"/>
<path d="M65.833,29.5c0,0,0.818,0.336,2.187,1.057c1.364,0.725,3.29,1.822,5.447,3.39c1.088,0.772,2.229,1.667,3.375,2.698  c1.157,1.018,2.328,2.167,3.415,3.491c1.093,1.316,2.152,2.781,2.954,4.475c0.402,0.845,0.755,1.737,1,2.686  c0.132,0.471,0.232,0.954,0.297,1.451c0.044,0.245,0.076,0.493,0.078,0.747l0.028,0.831l-0.04,0.654l-0.021,0.329l-0.057,0.395  l-0.124,0.784L84.195,53.2c-0.244,0.947-0.597,1.839-0.998,2.684c-0.826,1.679-1.881,3.141-2.967,4.46  c-1.081,1.327-2.277,2.45-3.417,3.482c-1.141,1.035-2.296,1.913-3.371,2.698c-2.157,1.565-4.072,2.675-5.432,3.405  C66.646,70.655,65.833,71,65.833,71s0.688-0.552,1.852-1.549c1.164-0.993,2.809-2.427,4.681-4.217  c0.938-0.893,1.907-1.903,2.91-2.973c1.001-1.073,1.968-2.273,2.906-3.526c0.931-1.26,1.763-2.635,2.405-4.069  c0.322-0.715,0.595-1.448,0.769-2.191l0.129-0.557l0.07-0.51l0.04-0.253l0.014-0.326l0.211-0.655C81.815,50.319,82,50.205,82,50.233  v-0.018l-0.188-0.035l-0.097-0.069l-0.056-0.138l-0.04-0.276c-0.006-0.184-0.031-0.369-0.064-0.555  c-0.039-0.372-0.113-0.743-0.21-1.113c-0.173-0.742-0.447-1.475-0.77-2.189c-0.666-1.42-1.495-2.792-2.42-4.054  c-0.933-1.256-1.925-2.431-2.909-3.518c-0.997-1.074-1.98-2.067-2.906-2.973c-1.872-1.788-3.506-3.233-4.665-4.233  C66.516,30.061,65.833,29.5,65.833,29.5z"/>
</svg>